<?xml version="1.0" encoding="utf-8"?>
<!-- Generator: Adobe Illustrator 16.0.4, SVG Export Plug-In . SVG Version: 6.00 Build 0)  -->
<!DOCTYPE svg PUBLIC "-//W3C//DTD SVG 1.1//EN" "http://www.w3.org/Graphics/SVG/1.1/DTD/svg11.dtd">
<svg version="1.1" id="Layer_1" xmlns="http://www.w3.org/2000/svg" xmlns:xlink="http://www.w3.org/1999/xlink" x="0px" y="0px"
	 width="80px" height="38px" viewBox="-1 0 80 38" enable-background="new -1 0 80 38" xml:space="preserve">
<g>
	<path d="M59.648,34.622c-0.108,0.014-0.26,0.091-0.457,0.23c-0.67,0.467-1.46,0.701-2.371,0.701c-0.594,0-1.367-0.398-2.321-1.194
		l-0.988-0.837l-0.245-0.212l-1.511-1.303c-0.435-0.341-1.195-0.877-2.289-1.603c0.746-0.193,1.444-0.437,2.092-0.735
		c0.634-0.29,1.219-0.628,1.757-1.018c1.714-1.267,3.061-3.077,4.047-5.427c0.896-2.139,1.387-4.481,1.467-7.029l0,0
		c0.009-0.254,0.015-0.509,0.015-0.768c0-4.421-1.066-8.019-3.195-10.794c-2.129-2.774-4.883-4.161-8.264-4.161
		c-3.813,0-6.772,1.663-8.875,4.986c-1.764,2.803-2.648,6.205-2.648,10.206c0,0.177,0.002,0.354,0.005,0.53l0,0
		c0.111,4.776,1.713,8.719,4.809,11.83c-0.439,0.235-0.844,0.624-1.217,1.168l-0.555-0.148c-1.062-0.28-2.042-1.036-2.941-2.263
		l-7.789-10.587l-0.682-0.926c-0.27-0.382-0.401-0.678-0.389-0.889c0.011-0.169,0.136-0.396,0.374-0.679l5.555-6.547
		c2.766-3.235,4.638-5.016,5.614-5.34c0.531-0.166,0.791-0.36,0.781-0.581c-0.022-0.277-0.18-0.415-0.472-0.415
		c-0.088,0-0.257,0.029-0.506,0.085C38.231,0.948,37.78,0.97,37.096,0.97l-1.221,0.021l-1.498-0.057
		c-0.565,0-1.076-0.026-1.533-0.077c-0.196-0.024-0.343-0.038-0.438-0.038c-0.337,0-0.508,0.141-0.508,0.425
		c0,0.257,0.246,0.432,0.739,0.527c0.781,0.184,1.171,0.599,1.171,1.248c0,0.749-0.535,1.742-1.609,2.983l-6.978,8.142l-0.245,0.254
		l-0.258,0.233c-0.096,0-0.148-0.149-0.148-0.447V5.896c0-1.445,0.09-2.412,0.272-2.902c0.18-0.488,0.614-0.923,1.302-1.305
		c0.265-0.135,0.394-0.297,0.394-0.484c0-0.271-0.129-0.397-0.392-0.383c-0.086,0-0.348,0.036-0.783,0.108
		c-0.239,0.018-0.521,0.026-0.85,0.026L23.287,1.01l-0.603,0.027c-1.188,0-2.059-0.048-2.613-0.143
		c-0.228-0.048-0.424-0.072-0.588-0.072c-0.293,0-0.441,0.145-0.441,0.433c0,0.206,0.14,0.351,0.424,0.433l0.799,0.21
		c0.707,0.199,1.184,0.598,1.434,1.201c0.25,0.602,0.375,1.662,0.375,3.176v9.921h0.001h-0.001v8.137c0,1.771-0.133,3.03-0.4,3.78
		c-0.06,0.163-0.126,0.311-0.205,0.444c-0.191-0.119-0.341-0.248-0.453-0.389c-0.335-0.416-0.757-1.475-1.265-3.179l-0.359-1.143
		l-2.307-7.651v-0.001L12.389,0.612C12.272,0.205,12.127,0,11.956,0c-0.17,0-0.325,0.21-0.465,0.633L6.092,16.197l0,0l0,0
		l-2.956,8.524l-0.472,1.394c-0.239,0.647-0.542,1.271-0.91,1.866c-0.369,0.599-0.661,0.939-0.877,1.025l-0.6,0.231
		c-0.175,0.071-0.267,0.214-0.276,0.433l0,0C0,29.683,0,29.692,0,29.705c0,0.265,0.146,0.398,0.438,0.398
		c0.053,0,0.356-0.045,0.905-0.138c0.172-0.024,0.417-0.035,0.729-0.035c0.682,0,1.279,0.015,1.797,0.043l1.554,0.108
		c0.248,0.014,0.431,0.021,0.551,0.021c0.313,0,0.465-0.12,0.454-0.358c0-0.026-0.005-0.053-0.01-0.074H6.412h0.008
		c-0.039-0.213-0.204-0.356-0.497-0.433c-0.75-0.211-1.254-0.463-1.51-0.758c-0.256-0.293-0.384-0.772-0.384-1.432
		c0-0.688,0.245-1.74,0.73-3.159l1.075-3.096c0.325-0.953,0.585-1.516,0.781-1.683c0.194-0.17,0.692-0.253,1.496-0.253h5.885
		c0.607,0,0.975,0.06,1.106,0.179c0.13,0.12,0.309,0.566,0.536,1.339l0.818,2.786c0.664,2.221,0.994,3.706,0.994,4.452
		c0,0.815-0.271,1.293-0.815,1.433l-0.506,0.148c-0.272,0.072-0.41,0.223-0.41,0.455c0,0.007,0.001,0.015,0.001,0.021l0,0
		c0.007,0.288,0.148,0.433,0.421,0.433c0.11,0,0.278-0.03,0.505-0.087c0.377-0.086,1.32-0.129,2.825-0.129
		c0.779,0,1.49-0.011,2.066-0.007c0.424,0.017,4.719,0.192,5.058,0.245c0.436,0.054,0.731,0.088,0.882,0.107
		c0.272,0.013,0.402-0.123,0.393-0.412c-0.003-0.056-0.015-0.105-0.035-0.15l0,0c-0.062-0.146-0.213-0.248-0.452-0.302
		c-1.203-0.254-1.972-0.641-2.306-1.162c-0.338-0.521-0.506-1.591-0.506-3.209v-7.731c0-0.325,0.103-0.487,0.3-0.487
		c0.134,0,0.268,0.078,0.401,0.232l0.325,0.466l8.725,11.678l0.276,0.396c0.032,0.042,0.063,0.082,0.095,0.118l0,0l0,0
		c0.248,0.287,0.535,0.433,0.861,0.433c0.173,0,0.422-0.015,0.745-0.043c0.292-0.026,0.761-0.044,1.41-0.044
		c0.592,0,1.011,0.013,1.257,0.036l-0.045,0.092c-0.508,1.057-0.784,2.132-0.826,3.219c-0.003,0.057-0.003,0.11-0.001,0.158h0.379
		h-0.379c0.014,0.345,0.147,0.519,0.4,0.519c0.165,0,0.284-0.174,0.358-0.519l0,0c0.016-0.073,0.029-0.155,0.041-0.244
		c0.121-0.989,0.454-1.832,1.006-2.524c0.553-0.692,1.16-1.039,1.817-1.039c0.758,0,1.949,0.558,3.571,1.671l2.727,1.882
		c0.072,0.053,0.189,0.137,0.349,0.255l0.004,0.001c0.458,0.34,1.271,0.952,2.439,1.839c1.765,1.339,3.295,2.009,4.593,2.009
		c0.966,0,1.967-0.277,3.011-0.835c1.045-0.558,1.556-1.093,1.536-1.603C59.929,34.713,59.831,34.61,59.648,34.622z M13.541,16.826
		H8.63l-0.438-0.021c-0.5,0-0.748-0.183-0.748-0.548c0-0.016,0.001-0.038,0.003-0.06v-0.002l0,0c0.018-0.14,0.087-0.38,0.21-0.716
		l3.168-9.11c0.099-0.281,0.184-0.415,0.26-0.4c0.152,0.015,0.294,0.246,0.424,0.694l0.128,0.443l2.554,8.331l0.083,0.379
		c0.038,0.159,0.061,0.286,0.073,0.382l0,0l0,0c0.003,0.04,0.006,0.073,0.006,0.103C14.354,16.65,14.083,16.826,13.541,16.826z
		 M38.522,16.197L38.522,16.197c-0.063-0.775-0.097-1.578-0.097-2.412c0-3.575,0.738-6.478,2.218-8.709
		c1.478-2.23,3.403-3.346,5.775-3.346c2.802,0,5.188,1.531,7.146,4.593c1.771,2.758,2.74,6.049,2.918,9.875l0,0
		c0.019,0.422,0.026,0.85,0.026,1.284c0,3.533-0.735,6.39-2.208,8.572c-1.476,2.181-3.405,3.272-5.796,3.272
		c-2.328,0-4.43-1.105-6.31-3.315C40.084,23.518,38.862,20.245,38.522,16.197z"/>
	<path d="M78,29.668c0.009-0.262-0.15-0.435-0.491-0.516c-1.024-0.239-1.704-0.566-2.041-0.983
		c-0.335-0.416-0.758-1.475-1.266-3.179l-0.357-1.143l-2.306-7.651l0,0L66.841,0.612C66.725,0.205,66.58,0,66.407,0
		c-0.169,0-0.326,0.21-0.465,0.633l-5.398,15.564l0,0l0,0l-2.954,8.524l-0.474,1.394c-0.238,0.647-0.541,1.271-0.909,1.866
		c-0.368,0.599-0.663,0.939-0.878,1.025l-0.6,0.231c-0.177,0.071-0.267,0.214-0.277,0.433l0,0c0,0.012,0,0.021,0,0.034
		c0,0.265,0.146,0.398,0.436,0.398c0.056,0,0.356-0.045,0.908-0.138c0.174-0.024,0.415-0.035,0.73-0.035
		c0.679,0,1.277,0.015,1.796,0.043l1.555,0.108c0.248,0.014,0.431,0.021,0.549,0.021c0.315,0,0.465-0.12,0.455-0.358
		c-0.002-0.026-0.006-0.053-0.01-0.074l0,0l0,0c-0.038-0.213-0.202-0.356-0.497-0.433c-0.75-0.211-1.253-0.463-1.51-0.758
		c-0.254-0.293-0.383-0.772-0.383-1.432c0-0.688,0.245-1.74,0.728-3.159l1.079-3.096c0.324-0.953,0.583-1.516,0.781-1.683
		c0.192-0.17,0.689-0.253,1.493-0.253h5.886c0.606,0,0.972,0.06,1.104,0.179c0.13,0.12,0.307,0.566,0.535,1.339l0.816,2.786
		c0.665,2.221,1,3.706,1,4.452c0,0.815-0.274,1.293-0.818,1.433l-0.505,0.148c-0.274,0.072-0.407,0.223-0.407,0.455
		c0,0.007,0,0.015,0,0.021l0,0c0.006,0.288,0.146,0.433,0.421,0.433c0.108,0,0.274-0.03,0.503-0.087
		c0.379-0.086,1.321-0.129,2.825-0.129c1.438,0,2.441,0.031,3.004,0.092c0.315,0.026,0.52,0.037,0.618,0.037
		c0.29,0,0.44-0.114,0.453-0.344H78C78,29.671,78,29.669,78,29.668z M67.993,16.826h-4.911l-0.439-0.021
		c-0.497,0-0.747-0.183-0.747-0.548c0-0.016,0-0.038,0.004-0.06l0,0v-0.002c0.018-0.14,0.088-0.38,0.206-0.716l3.172-9.11
		c0.098-0.281,0.184-0.415,0.26-0.4c0.151,0.015,0.291,0.246,0.424,0.694l0.128,0.443l2.553,8.331l0.081,0.379
		c0.039,0.159,0.064,0.286,0.075,0.382l0,0l0,0c0.004,0.04,0.006,0.073,0.006,0.103C68.805,16.65,68.534,16.826,67.993,16.826z"/>
</g>
</svg>
